<?xml version="1.0" encoding="UTF-8" standalone="no"?>
<svg
   xmlns:dc="http://purl.org/dc/elements/1.1/"
   xmlns:cc="http://creativecommons.org/ns#"
   xmlns:rdf="http://www.w3.org/1999/02/22-rdf-syntax-ns#"
   xmlns:svg="http://www.w3.org/2000/svg"
   xmlns="http://www.w3.org/2000/svg"
   xmlns:sodipodi="http://sodipodi.sourceforge.net/DTD/sodipodi-0.dtd"
   xmlns:inkscape="http://www.inkscape.org/namespaces/inkscape"
   width="58.393631mm"
   height="58.393631mm"
   viewBox="0 0 58.393627 58.393632"
   version="1.1"
   id="svg154"
   inkscape:version="1.0.1 (3bc2e813f5, 2020-09-07)"
   sodipodi:docname="logo.svg">
  <defs
     id="defs148">
    <filter
       inkscape:collect="always"
       style="color-interpolation-filters:sRGB"
       id="filter967"
       x="-2.0265315e-05"
       width="1.0000405"
       y="-1.8241095e-05"
       height="1.0000365">
      <feGaussianBlur
         inkscape:collect="always"
         stdDeviation="0.00014754367"
         id="feGaussianBlur969" />
    </filter>
  </defs>
  <sodipodi:namedview
     id="base"
     pagecolor="#ffffff"
     bordercolor="#666666"
     borderopacity="1.0"
     inkscape:pageopacity="0.0"
     inkscape:pageshadow="2"
     inkscape:zoom="1.979899"
     inkscape:cx="31.971495"
     inkscape:cy="104.6023"
     inkscape:document-units="mm"
     inkscape:current-layer="layer8"
     inkscape:document-rotation="0"
     showgrid="false"
     inkscape:window-width="1851"
     inkscape:window-height="1016"
     inkscape:window-x="0"
     inkscape:window-y="0"
     inkscape:window-maximized="1" />
  <metadata
     id="metadata151">
    <rdf:RDF>
      <cc:Work
         rdf:about="">
        <dc:format>image/svg+xml</dc:format>
        <dc:type
           rdf:resource="http://purl.org/dc/dcmitype/StillImage" />
        <dc:title />
      </cc:Work>
    </rdf:RDF>
  </metadata>
  <g
     inkscape:groupmode="layer"
     id="layer7"
     inkscape:label="Chip"
     transform="translate(-83.315752,-145.15312)">
    <g
       id="g3275"
       transform="matrix(0.97322717,0,0,0.97322717,83.315752,145.15312)"
       style="fill:#228c3a;fill-opacity:1">
      <g
         id="g3173"
         style="fill:#228c3a;fill-opacity:1">
        <g
           id="g3171"
           style="fill:#228c3a;fill-opacity:1">
          <circle
             cx="5"
             cy="5"
             r="1"
             id="circle3079"
             style="fill:#228c3a;fill-opacity:1" />
          <circle
             cx="55"
             cy="5"
             r="1"
             id="circle3081"
             style="fill:#228c3a;fill-opacity:1" />
          <circle
             cx="5"
             cy="55"
             r="1"
             id="circle3083"
             style="fill:#228c3a;fill-opacity:1" />
          <circle
             cx="11"
             cy="56"
             r="1"
             id="circle3085"
             style="fill:#228c3a;fill-opacity:1" />
          <circle
             cx="15"
             cy="56"
             r="1"
             id="circle3087"
             style="fill:#228c3a;fill-opacity:1" />
          <circle
             cx="19"
             cy="56"
             r="1"
             id="circle3089"
             style="fill:#228c3a;fill-opacity:1" />
          <circle
             cx="23"
             cy="56"
             r="1"
             id="circle3091"
             style="fill:#228c3a;fill-opacity:1" />
          <circle
             cx="38"
             cy="39"
             r="1"
             id="circle3093"
             style="fill:#228c3a;fill-opacity:1" />
          <circle
             cx="34"
             cy="39"
             r="1"
             id="circle3095"
             style="fill:#228c3a;fill-opacity:1" />
          <circle
             cx="36"
             cy="36"
             r="1"
             id="circle3097"
             style="fill:#228c3a;fill-opacity:1" />
          <circle
             cx="30"
             cy="39"
             r="1"
             id="circle3099"
             style="fill:#228c3a;fill-opacity:1" />
          <circle
             cx="26"
             cy="39"
             r="1"
             id="circle3101"
             style="fill:#228c3a;fill-opacity:1" />
          <circle
             cx="32"
             cy="36"
             r="1"
             id="circle3103"
             style="fill:#228c3a;fill-opacity:1" />
          <circle
             cx="28"
             cy="36"
             r="1"
             id="circle3105"
             style="fill:#228c3a;fill-opacity:1" />
          <circle
             cx="22"
             cy="39"
             r="1"
             id="circle3107"
             style="fill:#228c3a;fill-opacity:1" />
          <circle
             cx="24"
             cy="36"
             r="1"
             id="circle3109"
             style="fill:#228c3a;fill-opacity:1" />
          <circle
             cx="38"
             cy="33"
             r="1"
             id="circle3111"
             style="fill:#228c3a;fill-opacity:1" />
          <circle
             cx="34"
             cy="33"
             r="1"
             id="circle3113"
             style="fill:#228c3a;fill-opacity:1" />
          <circle
             cx="36"
             cy="30"
             r="1"
             id="circle3115"
             style="fill:#228c3a;fill-opacity:1" />
          <circle
             cx="30"
             cy="33"
             r="1"
             id="circle3117"
             style="fill:#228c3a;fill-opacity:1" />
          <circle
             cx="26"
             cy="33"
             r="1"
             id="circle3119"
             style="fill:#228c3a;fill-opacity:1" />
          <circle
             cx="32"
             cy="30"
             r="1"
             id="circle3121"
             style="fill:#228c3a;fill-opacity:1" />
          <circle
             cx="28"
             cy="30"
             r="1"
             id="circle3123"
             style="fill:#228c3a;fill-opacity:1" />
          <circle
             cx="22"
             cy="33"
             r="1"
             id="circle3125"
             style="fill:#228c3a;fill-opacity:1" />
          <circle
             cx="24"
             cy="30"
             r="1"
             id="circle3127"
             style="fill:#228c3a;fill-opacity:1" />
          <circle
             cx="38"
             cy="27"
             r="1"
             id="circle3129"
             style="fill:#228c3a;fill-opacity:1" />
          <circle
             cx="34"
             cy="27"
             r="1"
             id="circle3131"
             style="fill:#228c3a;fill-opacity:1" />
          <circle
             cx="36"
             cy="24"
             r="1"
             id="circle3133"
             style="fill:#228c3a;fill-opacity:1" />
          <circle
             cx="30"
             cy="27"
             r="1"
             id="circle3135"
             style="fill:#228c3a;fill-opacity:1" />
          <circle
             cx="26"
             cy="27"
             r="1"
             id="circle3137"
             style="fill:#228c3a;fill-opacity:1" />
          <circle
             cx="32"
             cy="24"
             r="1"
             id="circle3139"
             style="fill:#228c3a;fill-opacity:1" />
          <circle
             cx="28"
             cy="24"
             r="1"
             id="circle3141"
             style="fill:#228c3a;fill-opacity:1" />
          <circle
             cx="22"
             cy="27"
             r="1"
             id="circle3143"
             style="fill:#228c3a;fill-opacity:1" />
          <circle
             cx="24"
             cy="24"
             r="1"
             id="circle3145"
             style="fill:#228c3a;fill-opacity:1" />
          <circle
             cx="38"
             cy="21"
             r="1"
             id="circle3147"
             style="fill:#228c3a;fill-opacity:1" />
          <circle
             cx="34"
             cy="21"
             r="1"
             id="circle3149"
             style="fill:#228c3a;fill-opacity:1" />
          <circle
             cx="30"
             cy="21"
             r="1"
             id="circle3151"
             style="fill:#228c3a;fill-opacity:1" />
          <circle
             cx="26"
             cy="21"
             r="1"
             id="circle3153"
             style="fill:#228c3a;fill-opacity:1" />
          <circle
             cx="22"
             cy="21"
             r="1"
             id="circle3155"
             style="fill:#228c3a;fill-opacity:1" />
          <circle
             cx="55"
             cy="55"
             r="1"
             id="circle3157"
             style="fill:#228c3a;fill-opacity:1" />
          <path
             d="m 51,25 c 0.552,0 1,-0.447 1,-1 0,-0.553 -0.448,-1 -1,-1 H 49 V 21 H 45 V 19.357 C 45,16.955 43.045,15 40.643,15 H 39 V 11 H 37 V 9 C 37,8.447 36.552,8 36,8 35.448,8 35,8.447 35,9 v 2 H 33 V 9 C 33,8.447 32.552,8 32,8 31.448,8 31,8.447 31,9 v 2 H 29 V 9 C 29,8.447 28.552,8 28,8 27.448,8 27,8.447 27,9 v 2 H 25 V 9 C 25,8.447 24.552,8 24,8 23.448,8 23,8.447 23,9 v 2 h -2 v 4 H 19.357 C 16.955,15 15,16.955 15,19.357 V 21 h -4 v 2 H 9 c -0.552,0 -1,0.447 -1,1 0,0.553 0.448,1 1,1 h 2 v 2 H 9 c -0.552,0 -1,0.447 -1,1 0,0.553 0.448,1 1,1 h 2 v 2 H 9 c -0.552,0 -1,0.447 -1,1 0,0.553 0.448,1 1,1 h 2 v 2 H 9 c -0.552,0 -1,0.447 -1,1 0,0.553 0.448,1 1,1 h 2 v 2 h 4 v 1.643 C 15,43.045 16.955,45 19.357,45 H 21 v 4 h 2 v 2 c 0,0.553 0.448,1 1,1 0.552,0 1,-0.447 1,-1 v -2 h 2 v 2 c 0,0.553 0.448,1 1,1 0.552,0 1,-0.447 1,-1 v -2 h 2 v 2 c 0,0.553 0.448,1 1,1 0.552,0 1,-0.447 1,-1 v -2 h 2 v 2 c 0,0.553 0.448,1 1,1 0.552,0 1,-0.447 1,-1 v -2 h 2 v -4 h 1.643 C 43.045,45 45,43.045 45,40.643 V 39 h 4 v -2 h 2 c 0.552,0 1,-0.447 1,-1 0,-0.553 -0.448,-1 -1,-1 h -2 v -2 h 2 c 0.552,0 1,-0.447 1,-1 0,-0.553 -0.448,-1 -1,-1 h -2 v -2 h 2 c 0.552,0 1,-0.447 1,-1 0,-0.553 -0.448,-1 -1,-1 H 49 V 25 Z M 15,37 H 13 V 23 h 2 z m 8,-24 h 14 v 2 H 23 Z M 37,47 H 23 v -2 h 14 z m 6,-26 v 18 1.643 C 43,41.943 41.942,43 40.643,43 H 39 21 19.357 C 18.058,43 17,41.942 17,40.643 V 39 21 19.357 C 17,18.057 18.058,17 19.357,17 H 21 39 40.643 c 1.3,0 2.357,1.058 2.357,2.357 z m 4,16 H 45 V 23 h 2 z"
             id="path3159"
             style="fill:#228c3a;fill-opacity:1" />
          <circle
             cx="4"
             cy="37"
             r="1"
             id="circle3161"
             style="fill:#228c3a;fill-opacity:1" />
          <circle
             cx="4"
             cy="41"
             r="1"
             id="circle3163"
             style="fill:#228c3a;fill-opacity:1" />
          <circle
             cx="4"
             cy="45"
             r="1"
             id="circle3165"
             style="fill:#228c3a;fill-opacity:1" />
          <circle
             cx="4"
             cy="49"
             r="1"
             id="circle3167"
             style="fill:#228c3a;fill-opacity:1" />
          <path
             d="M 54.501,0 H 46 V 1 C 46,2.654 44.654,4 43,4 41.346,4 40,2.654 40,1 V 0 H 5.499 C 2.467,0 0,2.467 0,5.499 V 12 h 4 v 2 H 0 V 54.501 C 0,57.533 2.467,60 5.499,60 H 40 v -1 c 0,-1.654 1.346,-3 3,-3 1.654,0 3,1.346 3,3 v 1 h 8.501 C 57.533,60 60,57.533 60,54.501 V 5.499 C 60,2.467 57.533,0 54.501,0 Z M 58,17 h -2 c -0.552,0 -1,0.447 -1,1 0,0.553 0.448,1 1,1 h 2 v 1 h -2 c -0.552,0 -1,0.447 -1,1 0,0.553 0.448,1 1,1 h 2 v 1 h -2 c -0.552,0 -1,0.447 -1,1 0,0.553 0.448,1 1,1 h 2 v 1 h -2 c -0.552,0 -1,0.447 -1,1 0,0.553 0.448,1 1,1 h 2 v 1 h -2 c -0.552,0 -1,0.447 -1,1 0,0.553 0.448,1 1,1 h 2 v 1 h -2 c -0.552,0 -1,0.447 -1,1 0,0.553 0.448,1 1,1 h 2 v 1 h -2 c -0.552,0 -1,0.447 -1,1 0,0.553 0.448,1 1,1 h 2 v 1 h -2 c -0.552,0 -1,0.447 -1,1 0,0.553 0.448,1 1,1 h 2 v 1 h -2 c -0.552,0 -1,0.447 -1,1 0,0.553 0.448,1 1,1 h 2 V 54.501 C 58,56.431 56.431,58 54.501,58 H 47.899 C 47.435,55.721 45.414,54 43,54 c -2.414,0 -4.435,1.721 -4.899,4 H 5.499 C 3.569,58 2,56.431 2,54.501 V 16 H 6 V 10 H 2 V 5.499 C 2,3.569 3.569,2 5.499,2 h 32.602 c 0.464,2.279 2.484,4 4.899,4 2.415,0 4.435,-1.721 4.899,-4 h 6.602 C 56.431,2 58,3.569 58,5.499 Z"
             id="path3169"
             style="fill:#228c3a;fill-opacity:1" />
        </g>
      </g>
      <g
         id="g3175"
         style="fill:#228c3a;fill-opacity:1" />
      <g
         id="g3177"
         style="fill:#228c3a;fill-opacity:1" />
      <g
         id="g3179"
         style="fill:#228c3a;fill-opacity:1" />
      <g
         id="g3181"
         style="fill:#228c3a;fill-opacity:1" />
      <g
         id="g3183"
         style="fill:#228c3a;fill-opacity:1" />
      <g
         id="g3185"
         style="fill:#228c3a;fill-opacity:1" />
      <g
         id="g3187"
         style="fill:#228c3a;fill-opacity:1" />
      <g
         id="g3189"
         style="fill:#228c3a;fill-opacity:1" />
      <g
         id="g3191"
         style="fill:#228c3a;fill-opacity:1" />
      <g
         id="g3193"
         style="fill:#228c3a;fill-opacity:1" />
      <g
         id="g3195"
         style="fill:#228c3a;fill-opacity:1" />
      <g
         id="g3197"
         style="fill:#228c3a;fill-opacity:1" />
      <g
         id="g3199"
         style="fill:#228c3a;fill-opacity:1" />
      <g
         id="g3201"
         style="fill:#228c3a;fill-opacity:1" />
      <g
         id="g3203"
         style="fill:#228c3a;fill-opacity:1" />
    </g>
  </g>
  <g
     inkscape:groupmode="layer"
     id="layer10"
     inkscape:label="Chip Fill"
     transform="translate(-39.302643,-33.46594)"
     style="display:inline">
    <path
       style="fill:#8fd19e;fill-opacity:1;stroke-width:0.357143"
       d="m 164.88169,338.99138 c -3.70344,-1.27966 -6.29386,-3.75692 -7.82744,-7.48553 l -0.83412,-2.028 -0.008,-72.05358 -0.008,-72.05357 h 7.32143 7.32142 v -11.07143 -11.07142 h -7.33734 -7.33734 l 0.1052,-9.91072 c 0.10414,-9.81133 0.11446,-9.93041 1.0289,-11.875 1.69153,-3.59712 4.97664,-6.20735 8.97222,-7.129 0.97831,-0.22567 23.36308,-0.35652 61.88979,-0.36177 l 60.35715,-0.008 0.60338,2.05355 c 1.65092,5.61872 7.29284,10.85166 13.15655,12.20282 2.05739,0.47407 6.85599,0.47294 8.91864,-0.002 5.91516,-1.36232 11.45068,-6.68917 13.23636,-12.73739 l 0.44813,-1.51786 h 12.547 c 14.1093,0 15.45097,0.16993 18.65981,2.3633 2.23605,1.52844 3.53439,3.1615 4.62912,5.82259 l 0.81977,1.99268 0.008,22.41072 0.008,22.41071 h -4.31319 c -4.29101,0 -4.31855,0.005 -5.35714,1.04396 -0.85475,0.85475 -1.04396,1.34519 -1.04396,2.70604 0,1.36085 0.18921,1.85129 1.04396,2.70604 1.03859,1.03859 1.06613,1.04396 5.35714,1.04396 h 4.31319 v 1.78572 1.78571 h -4.31319 c -4.29101,0 -4.31855,0.005 -5.35714,1.04396 -1.39035,1.39034 -1.47297,3.7741 -0.18286,5.27541 0.84652,0.9851 0.93717,1.00406 5.35714,1.12047 l 4.49605,0.11841 v 1.75659 1.75659 h -4.31319 c -4.29101,0 -4.31855,0.005 -5.35714,1.04396 -0.81785,0.81784 -1.04396,1.3644 -1.04396,2.52347 0,3.19559 1.26835,3.93257 6.76798,3.93257 h 3.94631 v 1.56312 1.56312 l -4.33397,0.15453 -4.33397,0.15452 -1.02317,1.14513 c -1.75175,1.96055 -1.26054,4.93248 1.00692,6.09206 0.43565,0.2228 2.52505,0.39895 4.73214,0.39895 h 3.95205 v 1.56952 1.56953 l -4.26233,0.1269 c -4.15267,0.12364 -4.2905,0.15389 -5.35714,1.17586 -0.9126,0.87438 -1.09482,1.32384 -1.09482,2.70052 0,1.80232 0.78466,2.98767 2.37898,3.59383 0.485,0.1844 2.55885,0.33527 4.60856,0.33527 h 3.72675 v 1.57723 1.57723 l -4.2633,0.1192 c -4.15881,0.11627 -4.29012,0.1449 -5.35715,1.16815 -1.52261,1.46015 -1.54403,3.61408 -0.0525,5.28469 l 1.04129,1.16635 4.31585,0.1192 4.31586,0.1192 v 1.57723 1.57723 h -3.72675 c -2.04971,0 -4.12356,0.15087 -4.60856,0.33526 -1.59432,0.60616 -2.37898,1.79151 -2.37898,3.59384 0,1.37667 0.18222,1.82613 1.09482,2.70051 1.06664,1.02198 1.20447,1.05223 5.35714,1.17586 l 4.26233,0.1269 v 1.56953 1.56953 h -3.95205 c -2.20709,0 -4.29649,0.17614 -4.73214,0.39894 -2.26746,1.15959 -2.75867,4.13152 -1.00692,6.09207 l 1.02317,1.14512 4.33397,0.15453 4.33397,0.15452 v 1.56312 1.56313 h -3.94631 c -5.49963,0 -6.76798,0.73698 -6.76798,3.93256 0,1.15907 0.22611,1.70564 1.04396,2.52348 1.03886,1.03886 1.06507,1.04396 5.36722,1.04396 h 4.32327 l -0.0994,22.94643 -0.0994,22.94642 -0.83726,1.68441 c -1.33669,2.6892 -3.4118,4.77197 -6.048,6.07033 l -2.38337,1.17384 -13.60803,0.10496 -13.60803,0.10496 -0.45283,-1.53354 c -3.29582,-11.16152 -16.1547,-16.42856 -26.60476,-10.89739 -4.0813,2.16021 -8.21346,7.33897 -9.00209,11.28213 l -0.22349,1.11745 -60.9375,-0.0117 c -57.69603,-0.011 -61.03629,-0.0458 -62.7947,-0.65338 z m 25.46921,-2.90152 c 0.67229,-0.008 2.19087,-1.75549 2.37841,-2.73656 0.45624,-2.38666 -1.39144,-4.76365 -3.70546,-4.76698 -1.50942,-0.002 -3.30996,1.44356 -3.6883,2.96149 -0.61669,2.47415 1.6747,5.24244 3.90334,4.71574 0.39286,-0.0928 0.89326,-0.171 1.11201,-0.17369 z m 15.72955,-0.54434 c 1.18215,-0.77457 1.78128,-3.0431 1.18432,-4.48427 -0.52193,-1.26004 -2.23222,-2.47288 -3.49004,-2.47493 -1.27412,-0.002 -2.86142,0.97547 -3.45836,2.12984 -0.68403,1.32276 -0.68058,1.93264 0.0193,3.40752 1.01676,2.14267 3.65,2.79439 5.74478,1.42184 z m 14.67357,-0.0201 c 2.60952,-1.70983 1.58879,-6.20311 -1.54261,-6.79056 -2.56397,-0.48102 -4.4368,1.1559 -4.4368,3.87789 0,1.23412 0.20161,1.74074 0.98214,2.46801 0.54018,0.50331 1.22321,1.0088 1.51786,1.1233 0.76936,0.29899 2.50359,-0.0393 3.47941,-0.67866 z m 13.80681,0.41874 c 1.55046,-0.64783 2.35663,-1.83919 2.35663,-3.48265 0,-2.42394 -2.67037,-4.43733 -4.93286,-3.71924 -2.52043,0.79995 -3.41285,4.14 -1.66209,6.22066 0.78373,0.93141 1.23235,1.16334 2.76714,1.43058 0.15363,0.0267 0.81566,-0.17546 1.47118,-0.44935 z m -65.7131,-3.83723 c 0.49085,-0.22364 1.15622,-0.96248 1.47861,-1.64186 1.82086,-3.83717 -2.81512,-7.24839 -5.99253,-4.40938 -1.69185,1.51167 -1.69185,3.90407 0,5.41574 1.26751,1.13252 2.91425,1.36436 4.51392,0.6355 z m 184.58195,-0.6355 c 1.00137,-0.89472 1.16635,-1.27776 1.16635,-2.70787 0,-1.43011 -0.16498,-1.81315 -1.16635,-2.70787 -2.02454,-1.80892 -4.74471,-1.28129 -6.01015,1.16579 -1.88204,3.63945 2.90494,7.02445 6.01015,4.24995 z M 239.17843,317.14017 c 1.24634,-0.98037 1.66323,-2.69705 1.66561,-6.85875 l 0.002,-3.48215 h 3.36373 3.36373 l 0.11842,4.49446 0.11841,4.49445 1.16635,1.04126 c 1.35239,1.20735 3.33844,1.40188 4.68477,0.45887 1.37797,-0.96516 1.82745,-2.61989 1.82745,-6.72756 v -3.76148 h 3.39286 3.39286 v 3.76148 c 0,4.10767 0.44948,5.7624 1.82745,6.72756 1.34633,0.94301 3.33238,0.74848 4.68477,-0.45887 l 1.16635,-1.04126 0.11841,-4.49445 0.11841,-4.49446 h 3.54231 3.5423 v 4.49957 4.49957 l 1.1092,1.03615 c 1.29282,1.20768 3.02997,1.37405 4.60883,0.4414 1.50213,-0.88733 1.78197,-1.89022 1.78197,-6.38635 v -4.09034 h 3.75 3.75 v -7.28006 -7.28006 l 4.73214,-0.16318 c 3.75344,-0.12944 5.15257,-0.32635 6.76496,-0.95212 4.40499,-1.70958 8.04542,-5.5004 9.5385,-9.93253 0.49857,-1.47999 0.81262,-3.63017 0.97567,-6.68012 l 0.24044,-4.49764 h 7.267 7.267 v -3.57143 -3.57143 h 3.78531 c 2.67414,0 4.1267,-0.162 4.9483,-0.55187 2.63004,-1.24803 2.88811,-5.11606 0.4409,-6.60823 -0.94931,-0.57883 -1.80734,-0.69459 -5.15665,-0.6957 l -4.01786,-0.001 v -3.57143 -3.57143 h 4.23755 c 3.70772,0 4.35197,-0.09 5.15272,-0.71987 1.36474,-1.07351 1.8434,-2.84334 1.19117,-4.40435 -0.80912,-1.93649 -2.03597,-2.37578 -6.63513,-2.37578 h -3.94631 v -3.57143 -3.57142 h 4.23755 c 3.70772,0 4.35197,-0.09 5.15272,-0.71988 1.3562,-1.06679 1.84321,-2.84379 1.20076,-4.38139 -0.88228,-2.1116 -1.64656,-2.39873 -6.38478,-2.39873 h -4.20625 v -3.57143 -3.57143 h 3.94631 c 4.562,0 5.82832,-0.44482 6.61305,-2.32294 0.67296,-1.61062 0.30616,-3.20059 -0.98995,-4.2912 -0.99194,-0.83466 -1.29892,-0.88586 -5.3111,-0.88586 h -4.25831 v -3.75 -3.75 h -7.32143 -7.32143 l -0.003,-2.23214 c -0.008,-6.96957 -1.3622,-11.23296 -4.68154,-14.74267 -3.52966,-3.7321 -7.32828,-5.15344 -13.79775,-5.16277 l -3.66071,-0.005 v -7.32143 -7.32143 h -3.75 -3.75 v -4.32142 -4.32143 l -1.21429,-1.21429 c -0.86691,-0.86691 -1.53608,-1.21428 -2.33916,-1.21428 -1.37824,0 -3.08425,0.84181 -3.57883,1.76593 -0.20225,0.37791 -0.36772,2.62624 -0.36772,4.9963 v 4.30919 h -3.5423 -3.54231 l -0.11841,-4.4366 c -0.10978,-4.11302 -0.18119,-4.50334 -0.9791,-5.35167 -1.85243,-1.96947 -5.28283,-1.40856 -6.30191,1.03044 -0.33904,0.81143 -0.51597,2.52474 -0.51597,4.99636 v 3.76147 h -3.39286 -3.39286 l -0.001,-4.01785 c -0.001,-3.38553 -0.11356,-4.20193 -0.71445,-5.18748 -1.28919,-2.11447 -4.25083,-2.41798 -6.05073,-0.62006 -0.86495,0.86399 -0.91817,1.14127 -1.03047,5.36822 l -0.11832,4.45717 h -3.36373 -3.36373 l -0.002,-3.48214 c -0.001,-1.91518 -0.17167,-4.09318 -0.37906,-4.84001 -0.79276,-2.85536 -4.46202,-3.61087 -6.4938,-1.33712 -0.95565,1.06947 -0.98214,1.21456 -0.98214,5.37919 v 4.28008 h -3.75 -3.75 v 7.32143 7.32143 h -3.55385 c -1.95462,0 -4.40551,0.18227 -5.44643,0.40504 -4.87656,1.04364 -9.07694,4.33624 -11.2751,8.83834 -1.31512,2.69352 -1.32974,2.77214 -1.4529,7.81019 l -0.12441,5.08929 h -7.46651 -7.46651 v 3.75 3.75 h -4.31319 c -4.29102,0 -4.31855,0.005 -5.35714,1.04396 -1.39035,1.39034 -1.47298,3.7741 -0.18287,5.27541 0.84653,0.9851 0.93717,1.00406 5.35715,1.12047 l 4.49605,0.11841 v 3.54231 3.5423 h -4.31319 c -4.29102,0 -4.31855,0.005 -5.35714,1.04395 -0.85475,0.85475 -1.04396,1.34519 -1.04396,2.70605 0,1.36085 0.18921,1.85129 1.04396,2.70604 1.03859,1.03859 1.06612,1.04396 5.35714,1.04396 h 4.31319 v 3.5423 3.5423 l -4.49605,0.11841 c -4.41998,0.11641 -4.51062,0.13537 -5.35715,1.12047 -1.29011,1.50131 -1.20748,3.88507 0.18287,5.27542 1.03859,1.03858 1.06612,1.04395 5.35714,1.04395 h 4.31319 v 3.57143 3.57143 h -3.91177 c -2.19545,0 -4.30869,0.18085 -4.81642,0.41219 -2.29802,1.04705 -2.78928,4.30658 -0.92938,6.16654 1.08763,1.08767 1.14717,1.10124 5.37869,1.22674 l 4.27888,0.1269 v 3.53382 3.53381 h 7.46651 7.46651 l 0.12278,5.10932 c 0.12168,5.06402 0.13446,5.13291 1.44064,7.76786 0.77529,1.564 2.0679,3.4104 3.13965,4.48475 3.47668,3.48514 7.08035,4.78093 13.29609,4.78093 h 3.85353 v 7.32143 7.32142 h 3.75 3.75 v 4.32143 4.32143 l 1.21429,1.21429 c 1.47156,1.47156 3.47216,1.66608 4.97525,0.48375 z m -73.09664,-7.89462 c 0.63009,-0.59193 0.83567,-1.17091 0.83567,-2.35344 0,-1.93827 -0.43314,-2.78625 -1.77856,-3.482 -2.50706,-1.29645 -5.24626,0.10337 -5.58368,2.85345 -0.45407,3.70081 3.72765,5.61144 6.52657,2.98199 z m -0.42795,-14.32128 c 2.58761,-2.26243 1.15698,-6.69642 -2.16059,-6.69642 -3.21371,0 -5.00218,2.88688 -3.54008,5.71427 0.69939,1.35246 1.45635,1.76162 3.28366,1.77486 1.05405,0.008 1.7703,-0.22726 2.41701,-0.79271 z m 0.21208,-14.75014 c 2.46407,-2.22995 0.76827,-6.58914 -2.56328,-6.58914 -1.80346,0 -2.66206,0.45642 -3.34577,1.77856 -0.91127,1.76222 -0.69349,3.13878 0.72024,4.55251 1.15525,1.15526 1.39323,1.24459 2.87163,1.07795 0.8866,-0.0999 1.92933,-0.46888 2.31718,-0.81988 z m -0.72702,-14.27141 c 1.3112,-0.67805 1.77856,-1.54158 1.77856,-3.28621 0,-1.67982 -0.79092,-2.87934 -2.31971,-3.51811 -2.64606,-1.10559 -5.40183,1.01648 -5.05074,3.88931 0.34572,2.82888 3.0412,4.23402 5.59189,2.91501 z m 4.4796,-118.41261 c 0.84407,-0.88101 1.04896,-1.40995 1.04896,-2.70787 0,-1.37055 -0.17531,-1.76963 -1.16635,-2.65512 -1.6132,-1.4414 -3.55409,-1.4414 -5.1673,0 -1.69185,1.51167 -1.69185,3.90407 0,5.41574 1.67088,1.49293 3.82443,1.47143 5.28469,-0.0528 z m 183.92857,0 c 0.84407,-0.88101 1.04896,-1.40995 1.04896,-2.70787 0,-1.37055 -0.17531,-1.76963 -1.16635,-2.65512 -2.02454,-1.80893 -4.74471,-1.28129 -6.01015,1.16579 -1.27142,2.45866 0.63766,5.29208 3.56566,5.29208 1.22202,0 1.71461,-0.21052 2.56188,-1.09488 z"
       id="path3287"
       transform="scale(0.26458333)" />
  </g>
  <g
     inkscape:groupmode="layer"
     id="layer11"
     inkscape:label="Chip Fill 1"
     transform="translate(-39.302643,-33.46594)"
     style="display:inline">
    <path
       style="fill:#155724;fill-opacity:1;stroke-width:0.178571"
       d="m 217.27746,284.17388 c -2.83092,-0.90617 -5.08776,-3.25334 -5.79954,-6.03169 -0.24264,-0.9471 -0.26841,-5.68719 -0.22715,-41.77085 l 0.0466,-40.70251 0.40587,-1.00343 c 0.89087,-2.20244 2.81143,-4.12832 4.99716,-5.011 l 1.02554,-0.41415 h 41.16071 41.16072 l 1.04004,0.41958 c 2.3601,0.95212 4.38218,3.12437 5.11404,5.49385 0.36145,1.17025 0.36377,1.43615 0.36377,41.67586 0,39.89326 -0.005,40.51524 -0.3545,41.64585 -0.38448,1.24481 -1.43366,2.9838 -2.25517,3.7379 -0.86858,0.7973 -2.24473,1.57595 -3.43592,1.94408 -1.11426,0.34437 -1.8719,0.35057 -41.69643,0.34114 -38.2474,-0.009 -40.6177,-0.0276 -41.54569,-0.32463 z m 13.89304,-10.89839 c 2.9372,-1.50628 2.56066,-5.96667 -0.5826,-6.90122 -2.20544,-0.65573 -4.32561,0.6264 -4.81955,2.91451 -0.31092,1.44033 0.58979,3.2956 1.91954,3.95382 0.98265,0.4864 2.56907,0.50138 3.48261,0.0329 z m 14.44555,0.15024 c 0.62741,-0.23654 1.60335,-1.15686 1.97671,-1.86405 0.15997,-0.30299 0.2891,-1.00115 0.29727,-1.60714 0.0541,-4.0174 -5.28225,-5.19704 -7.10844,-1.57137 -0.16225,0.32214 -0.28784,1.00699 -0.28784,1.56962 0,1.51185 0.69372,2.64885 2.05357,3.36574 0.61846,0.32605 2.3297,0.38583 3.06873,0.1072 z m 15.33841,-0.39083 c 1.09406,-0.73985 1.6836,-1.81613 1.67822,-3.0638 -0.0161,-3.7393 -4.70315,-5.17189 -6.86365,-2.09788 -0.48268,0.68677 -0.54314,0.9152 -0.54314,2.05206 0,1.55728 0.44143,2.39675 1.67005,3.17592 0.68495,0.43438 0.99578,0.51405 2.00544,0.51405 1.05296,0 1.29679,-0.0689 2.05308,-0.58035 z m 14.32319,0.24059 c 1.29471,-0.66397 2.02732,-1.86081 2.02732,-3.31196 0,-2.22551 -1.49074,-3.7289 -3.70269,-3.73411 -1.88754,-0.004 -3.16489,1.02866 -3.64802,2.95047 -0.39885,1.58656 0.46431,3.33002 2.05734,4.15555 0.7571,0.39234 2.4445,0.36136 3.26605,-0.06 z m 15.16561,-0.23063 c 0.8806,-0.58275 1.65842,-2.02987 1.65588,-3.08074 -8.9e-4,-0.39813 -0.19777,-1.14493 -0.43737,-1.65956 -1.03438,-2.22174 -3.8924,-2.80788 -5.78638,-1.1867 -1.91992,1.64337 -1.60361,4.8177 0.60793,6.10095 1.01963,0.59163 2.92986,0.50772 3.95994,-0.17395 z m -51.93052,-10.76351 c 0.84689,-0.44391 1.66006,-1.46112 1.8964,-2.37221 0.40087,-1.5454 -0.0984,-2.98656 -1.39867,-4.03754 -0.57822,-0.46735 -0.86051,-0.5596 -1.89049,-0.6178 -1.44238,-0.0815 -2.35302,0.29632 -3.20475,1.32961 -1.62868,1.97587 -0.76146,4.979 1.70062,5.88914 0.77083,0.28495 2.16392,0.193 2.89689,-0.1912 z m 14.82838,-0.0897 c 1.1715,-0.59766 1.97405,-1.97563 1.97405,-3.38943 0,-0.97873 -0.80755,-2.4469 -1.65399,-3.00705 -0.98613,-0.65258 -2.79289,-0.77193 -3.80792,-0.25153 -1.33342,0.68363 -2.04114,1.85902 -2.03416,3.37836 0.013,2.83853 2.95386,4.57982 5.52202,3.26965 z m 13.83771,0.33638 c 3.27664,-0.82506 3.78956,-5.42116 0.77739,-6.96589 -0.90714,-0.46521 -2.47465,-0.45218 -3.46828,0.0288 -1.34078,0.64906 -2.27163,2.58863 -1.94847,4.05996 0.1851,0.84273 1.09335,2.13052 1.73758,2.46366 1.20018,0.62064 1.76137,0.70059 2.90178,0.41343 z m 15.76553,-0.44939 c 2.08143,-1.20657 2.37318,-4.23745 0.56512,-5.87093 -0.89427,-0.80791 -1.36027,-0.98533 -2.58804,-0.98533 -1.50908,0 -2.65988,0.71704 -3.35324,2.08934 -0.35238,0.69745 -0.37778,2.3523 -0.0482,3.13961 0.30401,0.72619 1.55983,1.87063 2.2103,2.01428 0.27256,0.0602 0.57593,0.13935 0.67414,0.17591 0.4199,0.15631 1.84347,-0.15917 2.5399,-0.56288 z m -51.81603,-10.8742 c 1.29711,-0.6557 1.93162,-1.64247 2.00708,-3.12138 0.0749,-1.46735 -0.41428,-2.52177 -1.52927,-3.29649 -1.02844,-0.71459 -2.67064,-0.85003 -3.7333,-0.3079 -2.38421,1.21634 -2.9001,4.16067 -1.0527,6.00807 1.21971,1.21971 2.79573,1.48226 4.30819,0.7177 z m 14.20484,0.24328 c 2.51821,-0.84313 3.4071,-3.91218 1.72435,-5.95364 -1.32298,-1.605 -3.9476,-1.79558 -5.46882,-0.39711 -1.08468,0.99715 -1.41887,3.09353 -0.72248,4.53207 0.75339,1.5563 2.7828,2.38255 4.46695,1.81868 z m 14.68214,0.0118 c 0.37526,-0.1042 0.99333,-0.47047 1.3735,-0.81393 1.79184,-1.61881 1.60334,-4.50947 -0.38385,-5.8866 -0.98612,-0.68338 -2.62802,-0.81206 -3.65093,-0.28613 -4.17884,2.14856 -1.85795,8.24158 2.66128,6.98666 z m 15.31162,-0.29962 c 1.34086,-0.67977 1.98359,-1.73004 1.97642,-3.22961 -0.0107,-2.23956 -1.51188,-3.77932 -3.6846,-3.77932 -2.13853,0 -3.71727,1.59264 -3.71727,3.75 0,2.87929 2.82596,4.57677 5.42545,3.25893 z m 14.29549,0.21562 c 1.94595,-0.68658 2.98608,-2.98512 2.20114,-4.86422 -1.15377,-2.76203 -4.88264,-3.20367 -6.58944,-0.78045 -0.70865,1.0061 -0.84768,2.65954 -0.31134,3.70269 0.95987,1.8669 2.78033,2.61915 4.69964,1.94198 z m -50.74024,-11.39686 c 1.61567,-1.0692 2.15435,-3.35226 1.18231,-5.01093 -1.9313,-3.29551 -6.93122,-1.96937 -6.95618,1.845 -0.0102,1.56485 0.80959,2.86192 2.20814,3.49357 0.9364,0.42292 2.67263,0.26339 3.56573,-0.32764 z m 14.07266,0.32355 c 2.39087,-0.99873 3.10607,-3.98985 1.41463,-5.9163 -1.4866,-1.69314 -3.85007,-1.73526 -5.52972,-0.0985 -1.11387,1.0854 -1.34932,2.80604 -0.58922,4.30602 0.85083,1.67904 2.9501,2.44159 4.70431,1.70882 z m 15.44796,-0.41124 c 1.14002,-0.78436 1.61834,-1.83088 1.52277,-3.33173 -0.12407,-1.94846 -1.40535,-3.25149 -3.38421,-3.44163 -2.13176,-0.20484 -4.08134,1.56828 -4.08134,3.71193 0,1.34568 0.96454,2.8347 2.21752,3.42333 1.09885,0.51622 2.67093,0.3635 3.72526,-0.3619 z m 14.15715,0.35057 c 1.56643,-0.71146 2.45556,-2.57654 2.04472,-4.28911 -0.44862,-1.87002 -2.10394,-3.01941 -4.05803,-2.81773 -1.99302,0.20569 -3.26718,1.68454 -3.26718,3.79203 0,0.95998 0.0795,1.23007 0.58036,1.97066 1.05568,1.56113 2.99888,2.11684 4.70013,1.34415 z m -51.57183,-11.00981 c 1.37591,-0.57489 2.17348,-1.82128 2.18028,-3.40717 0.005,-1.19673 -0.34792,-2.00163 -1.22586,-2.7948 -1.20343,-1.08722 -2.76887,-1.27027 -4.27768,-0.50021 -0.35929,0.18338 -0.78946,0.48404 -0.95594,0.66813 -0.46023,0.50893 -1.0284,1.86985 -1.03169,2.47115 -0.008,1.41786 0.83668,2.80539 2.12015,3.48375 0.79488,0.42013 2.28612,0.45712 3.19074,0.0791 z m 14.64529,-8.9e-4 c 1.46162,-0.61055 2.23871,-1.77952 2.24918,-3.38339 0.0225,-3.45647 -4.03159,-5.11907 -6.41866,-2.63229 -1.29188,1.34584 -1.30332,3.80663 -0.0242,5.19806 0.92752,1.00893 2.84207,1.3822 4.19364,0.81762 z m 14.96819,-0.0888 c 2.89427,-1.4011 2.60989,-5.78113 -0.44534,-6.85908 -1.48419,-0.52365 -2.78623,-0.23378 -3.88492,0.86491 -2.35879,2.35873 -0.73123,6.36024 2.58697,6.36024 0.63007,0 1.26045,-0.13239 1.74329,-0.36613 z m 14.49366,0.0897 c 2.7337,-1.14221 3.02378,-5.03175 0.492,-6.59703 -1.66302,-1.02817 -3.99531,-0.57606 -5.02057,0.97322 -1.2978,1.9611 -0.69656,4.47007 1.32742,5.53932 0.80545,0.42551 2.29111,0.46473 3.20115,0.0845 z m 14.72178,0.0186 c 1.22892,-0.51348 2.28186,-2.12493 2.28186,-3.49224 0,-1.92044 -1.84272,-3.75351 -3.76873,-3.74901 -2.17696,0.005 -3.87909,1.94012 -3.69192,4.19708 0.20313,2.4495 2.86176,4.01228 5.17879,3.04417 z m -50.76657,-11.49607 c 0.90474,-0.73226 1.24297,-1.26614 1.42449,-2.24849 0.23409,-1.26687 -0.11458,-2.44994 -0.98465,-3.34097 -2.74668,-2.81286 -7.35339,-0.0657 -6.22939,3.71486 0.33663,1.13226 1.55572,2.30973 2.56559,2.47799 0.35716,0.0595 0.72832,0.12793 0.82481,0.15205 0.47869,0.11966 1.85235,-0.31287 2.39915,-0.75544 z m 14.66212,0.0755 c 0.87387,-0.5783 1.5982,-1.9658 1.60084,-3.06652 0.003,-1.14949 -0.80883,-2.55949 -1.833,-3.18456 -2.02432,-1.23546 -4.75884,-0.25819 -5.49179,1.96266 -0.1179,0.35725 -0.17823,1.08533 -0.13407,1.61794 0.23249,2.80343 3.44449,4.26768 5.85802,2.67048 z m 14.37044,0.20749 c 1.18581,-0.62204 1.875,-1.85416 1.875,-3.35205 0,-2.29426 -2.22153,-4.09384 -4.43875,-3.59567 -2.68524,0.60334 -3.87062,3.56896 -2.327,5.82174 1.04384,1.52337 3.19091,2.01769 4.89075,1.12598 z m 14.70546,0.0565 c 0.17894,-0.0958 0.61543,-0.49521 0.96998,-0.88765 2.50634,-2.77422 -0.24582,-7.06862 -3.85726,-6.01875 -1.61306,0.46893 -2.62379,1.86774 -2.61881,3.62432 0.007,2.37965 2.0324,4.02716 4.41926,3.5943 0.41881,-0.0759 0.90788,-0.21645 1.08683,-0.31222 z M 230.60013,207.2808 c 1.51392,-0.44958 2.57219,-1.88295 2.57219,-3.4839 0,-2.22791 -1.48711,-3.75313 -3.65934,-3.75313 -2.24583,0 -3.73702,1.4612 -3.73582,3.66071 9.6e-4,1.77201 0.86664,2.99021 2.55321,3.59292 0.84544,0.30213 1.20534,0.2995 2.26976,-0.0166 z m 15.54406,-0.3675 c 1.9647,-1.1514 2.38526,-3.91595 0.85361,-5.6113 -0.81964,-0.90724 -1.60987,-1.25823 -2.8328,-1.25823 -2.16183,0 -3.67125,1.5038 -3.67125,3.65758 0,1.22236 0.30227,1.96438 1.11539,2.73809 1.21539,1.15646 3.0442,1.34755 4.53505,0.47386 z m 13.72432,0.43333 c 3.17699,-0.79998 3.74776,-5.19293 0.89214,-6.86644 -0.71288,-0.41777 -0.96217,-0.46771 -2.03266,-0.40722 -1.61315,0.0911 -2.54609,0.67963 -3.15675,1.99122 -1.01826,2.187 -0.0283,4.55093 2.19545,5.24264 0.8747,0.27208 1.15804,0.27744 2.10182,0.0398 z m 14.79572,0.004 c 0.87736,-0.24361 2.17916,-1.43735 2.44461,-2.24168 0.24637,-0.7465 0.25652,-2.13743 0.0201,-2.75915 -0.98449,-2.58943 -4.63072,-3.12549 -6.42804,-0.94503 -2.30174,2.79241 0.45041,6.92129 3.96329,5.94586 z m 15.4626,-0.3376 c 1.17151,-0.59766 1.97406,-1.97563 1.97406,-3.38943 0,-0.9621 -0.77701,-2.37956 -1.6275,-2.96895 -0.84392,-0.58484 -2.40136,-0.7823 -3.4474,-0.43707 -3.26001,1.0759 -3.192,6.00299 0.0976,7.06798 0.95115,0.30793 2.0633,0.20701 3.00328,-0.27253 z"
       id="path3290"
       transform="scale(0.26458333)" />
  </g>
  <g
     inkscape:groupmode="layer"
     id="layer1"
     inkscape:label="ChipDots"
     transform="translate(-39.302643,-33.46594)"
     style="display:inline;filter:url(#filter967)">
    <g
       id="g1020"
       style="fill:#155724;fill-opacity:1;stroke:#155724;stroke-opacity:1;stroke-width:0.4;stroke-miterlimit:4;stroke-dasharray:none">
      <path
         style="fill:#155724;fill-opacity:1;stroke-width:1.51181104;stroke:#155724;stroke-opacity:1;stroke-miterlimit:4;stroke-dasharray:none"
         d="m 228.07648,207.00888 c -3.39237,-1.58848 -2.55849,-6.51611 1.14805,-6.78422 2.21527,-0.16023 3.88827,1.52112 3.72734,3.74594 -0.17648,2.43982 -2.74074,4.03783 -4.87539,3.03828 z"
         id="path924"
         transform="scale(0.26458333)" />
      <path
         style="fill:#155724;fill-opacity:1;stroke-width:1.51181104;stroke:#155724;stroke-opacity:1;stroke-miterlimit:4;stroke-dasharray:none"
         d="m 243.07801,207.11646 c -3.75097,-1.31116 -2.86285,-6.9274 1.09547,-6.9274 3.03737,0 4.68389,3.56667 2.69319,5.83395 -0.99703,1.13556 -2.46016,1.55783 -3.78866,1.09345 z"
         id="path926"
         transform="scale(0.26458333)" />
      <path
         style="fill:#155724;fill-opacity:1;stroke-width:1.51181104;stroke:#155724;stroke-opacity:1;stroke-miterlimit:4;stroke-dasharray:none"
         d="m 257.54077,206.99889 c -0.89986,-0.4088 -1.79429,-1.41483 -2.06693,-2.32481 -0.65097,-2.17274 1.1192,-4.49249 3.41948,-4.4811 3.74443,0.0186 4.91926,5.00272 1.57234,6.67056 -1.09955,0.54793 -1.93192,0.58645 -2.92489,0.13535 z"
         id="path928"
         transform="scale(0.26458333)" />
      <path
         style="fill:#155724;fill-opacity:1;stroke-width:1.51181104;stroke:#155724;stroke-opacity:1;stroke-miterlimit:4;stroke-dasharray:none"
         d="m 272.36373,207.07598 c -1.54087,-0.56238 -2.60091,-2.47702 -2.24598,-4.0567 0.19664,-0.87518 0.58808,-1.44452 1.50134,-2.18368 0.52186,-0.42238 0.87915,-0.55065 1.69891,-0.60995 3.63969,-0.26327 5.24602,4.33194 2.2503,6.43742 -0.87679,0.61623 -2.18547,0.78485 -3.20457,0.41291 z"
         id="path930"
         transform="scale(0.26458333)" />
      <path
         style="fill:#155724;fill-opacity:1;stroke-width:1.51181104;stroke:#155724;stroke-opacity:1;stroke-miterlimit:4;stroke-dasharray:none"
         d="m 286.7618,206.86354 c -1.69128,-0.8428 -2.40497,-2.67232 -1.73094,-4.43724 1.30362,-3.41348 6.3432,-2.70939 6.83468,0.95489 0.25377,1.89195 -1.57289,3.93472 -3.52925,3.94681 -0.34902,0.002 -1.05754,-0.20685 -1.57449,-0.46446 z"
         id="path932"
         transform="scale(0.26458333)" />
      <path
         style="fill:#155724;fill-opacity:1;stroke-width:1.51181104;stroke:#155724;stroke-opacity:1;stroke-miterlimit:4;stroke-dasharray:none"
         d="m 235.76691,218.14497 c -1.01544,-0.37338 -1.55793,-0.82737 -2.0574,-1.72173 -1.29672,-2.32196 0.41922,-5.16275 3.1185,-5.16275 1.97033,0 3.53317,1.52116 3.53317,3.43895 0,0.98795 -0.45284,2.12372 -1.05881,2.65559 -0.98173,0.86168 -2.44886,1.18949 -3.53546,0.78994 z"
         id="path934"
         transform="scale(0.26458333)" />
      <path
         style="fill:#155724;fill-opacity:1;stroke-width:1.51181104;stroke:#155724;stroke-opacity:1;stroke-miterlimit:4;stroke-dasharray:none"
         d="m 250.42172,218.14101 c -2.0399,-0.72712 -2.99252,-3.03112 -2.03121,-4.91269 0.63709,-1.24698 1.53207,-1.84831 2.8785,-1.93404 1.39437,-0.0888 2.3718,0.35121 3.14195,1.41437 1.3845,1.91125 0.50921,4.64984 -1.73001,5.41282 -0.99536,0.33915 -1.35387,0.34225 -2.25923,0.0195 z"
         id="path936"
         transform="scale(0.26458333)" />
      <path
         style="fill:#155724;fill-opacity:1;stroke-width:1.51181104;stroke:#155724;stroke-opacity:1;stroke-miterlimit:4;stroke-dasharray:none"
         d="m 265.23612,218.18935 c -0.95468,-0.26293 -2.16692,-1.50255 -2.43198,-2.48692 -0.40445,-1.502 0.16957,-2.9512 1.53631,-3.87868 0.82131,-0.55735 0.96096,-0.59294 2.08007,-0.5302 1.32381,0.0742 1.79581,0.32817 2.71054,1.45835 0.75964,0.93856 0.86353,2.52381 0.24164,3.68716 -0.76321,1.42773 -2.555,2.18588 -4.13658,1.75029 z"
         id="path938"
         transform="scale(0.26458333)" />
      <path
         style="fill:#155724;fill-opacity:1;stroke-width:1.51181104;stroke:#155724;stroke-opacity:1;stroke-miterlimit:4;stroke-dasharray:none"
         d="m 279.93249,218.15699 c -1.5662,-0.5597 -2.47948,-1.80732 -2.47948,-3.38719 0,-1.06497 0.33012,-1.83718 1.09478,-2.56086 0.7634,-0.72248 1.36917,-0.94845 2.5426,-0.94845 1.66881,0 3.02002,1.19146 3.41255,3.00912 0.3312,1.53363 -0.99551,3.51366 -2.6301,3.92525 -1.01103,0.25458 -1.12839,0.25229 -1.94035,-0.0379 z"
         id="path940"
         transform="scale(0.26458333)" />
      <path
         style="fill:#155724;fill-opacity:1;stroke-width:1.51181104;stroke:#155724;stroke-opacity:1;stroke-miterlimit:4;stroke-dasharray:none"
         d="m 228.88158,229.29274 c -1.45544,-0.25909 -2.48233,-1.22199 -2.87703,-2.69772 -0.31388,-1.17356 0.0366,-2.32495 1.00148,-3.2898 2.55559,-2.55559 6.58717,-0.23357 5.90529,3.4012 -0.11859,0.63211 -1.09355,1.90363 -1.71442,2.23591 -0.54751,0.29302 -1.67725,0.464 -2.31532,0.35041 z"
         id="path942"
         transform="scale(0.26458333)" />
      <path
         style="fill:#155724;fill-opacity:1;stroke-width:1.51181104;stroke:#155724;stroke-opacity:1;stroke-miterlimit:4;stroke-dasharray:none"
         d="m 243.27423,229.20279 c -0.9519,-0.2417 -1.97988,-1.11232 -2.36037,-1.99906 -0.60627,-1.41293 -0.0588,-3.42822 1.15646,-4.25723 1.5726,-1.07275 3.28025,-0.94071 4.57468,0.35372 2.58186,2.58186 0.17183,6.80207 -3.37077,5.90257 z"
         id="path944"
         transform="scale(0.26458333)" />
      <path
         style="fill:#155724;fill-opacity:1;stroke-width:1.51181104;stroke:#155724;stroke-opacity:1;stroke-miterlimit:4;stroke-dasharray:none"
         d="m 258.25658,229.30073 c -2.27128,-0.52297 -3.5166,-2.7561 -2.66952,-4.78705 0.80544,-1.93109 3.10334,-2.82462 4.90167,-1.90598 1.09704,0.5604 1.96758,2.00153 1.96036,3.24527 -0.0123,2.11096 -2.19665,3.90732 -4.19251,3.44776 z"
         id="path946"
         transform="scale(0.26458333)" />
      <path
         style="fill:#155724;fill-opacity:1;stroke-width:1.51181104;stroke:#155724;stroke-opacity:1;stroke-miterlimit:4;stroke-dasharray:none"
         d="m 272.97382,229.29226 c -2.33212,-0.39628 -3.62496,-3.09177 -2.47859,-5.16772 1.35187,-2.44808 4.65485,-2.52299 6.12876,-0.139 1.59942,2.587 -0.62489,5.82078 -3.65017,5.30672 z"
         id="path948"
         transform="scale(0.26458333)" />
      <path
         style="fill:#155724;fill-opacity:1;stroke-width:1.51181104;stroke:#155724;stroke-opacity:1;stroke-miterlimit:4;stroke-dasharray:none"
         d="m 287.53441,229.26677 c -0.89973,-0.19388 -1.94563,-1.03868 -2.40801,-1.94501 -1.30662,-2.56118 1.1631,-5.65451 3.97583,-4.97975 1.13345,0.27191 2.32655,1.36859 2.64092,2.42749 0.75971,2.55902 -1.58356,5.06293 -4.20874,4.49727 z"
         id="path950"
         transform="scale(0.26458333)" />
      <path
         style="fill:#155724;fill-opacity:1;stroke-width:1.51181104;stroke:#155724;stroke-opacity:1;stroke-miterlimit:4;stroke-dasharray:none"
         d="m 235.48873,240.16791 c -0.58335,-0.23139 -1.56469,-1.17876 -1.91551,-1.84921 -0.73255,-1.39995 -0.11798,-3.42995 1.35053,-4.46099 0.66509,-0.46696 0.93371,-0.54365 1.90426,-0.54365 0.96822,0 1.23955,0.077 1.8957,0.53819 1.98221,1.39315 2.21919,3.97238 0.50711,5.51914 -0.39878,0.36027 -0.92697,0.73181 -1.17377,0.82564 -0.5713,0.21721 -1.98781,0.20115 -2.56832,-0.0291 z"
         id="path952"
         transform="scale(0.26458333)" />
      <path
         style="fill:#155724;fill-opacity:1;stroke-width:1.51181104;stroke:#155724;stroke-opacity:1;stroke-miterlimit:4;stroke-dasharray:none"
         d="m 250.0423,240.07141 c -1.97025,-1.03686 -2.64481,-3.43366 -1.4672,-5.21315 0.54407,-0.82215 2.02904,-1.63541 2.97547,-1.62956 1.411,0.009 2.99287,1.23721 3.41733,2.65391 0.46811,1.56244 -0.34776,3.38135 -1.84094,4.10418 -0.93798,0.45407 -2.31105,0.49174 -3.08466,0.0846 z"
         id="path954"
         transform="scale(0.26458333)" />
      <path
         style="fill:#155724;fill-opacity:1;stroke-width:1.51181104;stroke:#155724;stroke-opacity:1;stroke-miterlimit:4;stroke-dasharray:none"
         d="m 264.57931,239.95198 c -0.88036,-0.46495 -1.71992,-1.64258 -1.88168,-2.63941 -0.34797,-2.14424 1.86969,-4.37098 4.00761,-4.02404 2.86773,0.46536 4.05798,3.83762 2.11081,5.98041 -1.02703,1.13021 -2.83741,1.42208 -4.23674,0.68304 z"
         id="path956"
         transform="scale(0.26458333)" />
      <path
         style="fill:#155724;fill-opacity:1;stroke-width:1.51181104;stroke:#155724;stroke-opacity:1;stroke-miterlimit:4;stroke-dasharray:none"
         d="m 279.34499,239.96291 c -0.38352,-0.21937 -0.94365,-0.70472 -1.24473,-1.07856 -0.46341,-0.57538 -0.55771,-0.86316 -0.61444,-1.875 -0.0625,-1.11405 -0.0264,-1.25512 0.53045,-2.07571 1.34491,-1.98188 3.77672,-2.23731 5.44238,-0.57165 1.27627,1.27627 1.43033,2.87053 0.42984,4.44813 -0.9358,1.47561 -3.04396,2.0105 -4.5435,1.15279 z"
         id="path958"
         transform="scale(0.26458333)" />
      <path
         style="fill:#155724;fill-opacity:1;stroke-width:1.51181104;stroke:#155724;stroke-opacity:1;stroke-miterlimit:4;stroke-dasharray:none"
         d="m 228.07648,251.10603 c -1.21011,-0.54974 -2.22862,-2.02973 -2.22862,-3.2384 0,-0.65903 0.42117,-1.66991 0.94372,-2.26505 2.21412,-2.52175 6.19715,-1.06595 6.19715,2.26505 0,2.58947 -2.58681,4.29482 -4.91225,3.2384 z"
         id="path960"
         transform="scale(0.26458333)" />
      <path
         style="fill:#155724;fill-opacity:1;stroke-width:1.51181104;stroke:#155724;stroke-opacity:1;stroke-miterlimit:4;stroke-dasharray:none"
         d="m 242.81143,251.1546 c -2.88813,-1.25245 -2.86307,-5.36901 0.0401,-6.58201 1.85832,-0.77646 4.22452,0.39076 4.76935,2.35266 0.23339,0.84043 0.23339,1.04434 0,1.88476 -0.54609,1.96644 -2.96367,3.14501 -4.80942,2.34459 z"
         id="path962"
         transform="scale(0.26458333)" />
      <path
         style="fill:#155724;fill-opacity:1;stroke-width:1.51181104;stroke:#155724;stroke-opacity:1;stroke-miterlimit:4;stroke-dasharray:none"
         d="m 257.33026,251.07874 c -1.47616,-0.75061 -2.28711,-2.48975 -1.87661,-4.02455 0.43798,-1.63758 1.53144,-2.55805 3.20921,-2.70151 0.84619,-0.0724 1.16072,-0.0132 1.82587,0.34355 2.41506,1.29522 2.62138,4.53396 0.389,6.10637 -1.00827,0.71019 -2.47007,0.82397 -3.54747,0.27614 z"
         id="path964"
         transform="scale(0.26458333)" />
      <path
         style="fill:#155724;fill-opacity:1;stroke-width:1.51181104;stroke:#155724;stroke-opacity:1;stroke-miterlimit:4;stroke-dasharray:none"
         d="m 272.27444,251.15479 c -1.00218,-0.43342 -1.76975,-1.30226 -2.07347,-2.34705 -0.24535,-0.84396 -0.24535,-1.03625 0,-1.88021 0.81018,-2.78694 4.30037,-3.51665 6.1408,-1.28388 2.29065,2.77895 -0.77621,6.93446 -4.06733,5.51114 z"
         id="path966"
         transform="scale(0.26458333)" />
      <path
         style="fill:#155724;fill-opacity:1;stroke-width:1.51181104;stroke:#155724;stroke-opacity:1;stroke-miterlimit:4;stroke-dasharray:none"
         d="m 286.73873,251.03903 c -2.40863,-1.29176 -2.62162,-4.53376 -0.40064,-6.09819 2.16903,-1.52783 5.22927,-0.0542 5.53584,2.66566 0.12088,1.07246 -0.58688,2.53057 -1.55346,3.20042 -1.03055,0.71416 -2.50477,0.8097 -3.58174,0.23211 z"
         id="path968"
         transform="scale(0.26458333)" />
      <path
         style="fill:#155724;fill-opacity:1;stroke-width:1.51181104;stroke:#155724;stroke-opacity:1;stroke-miterlimit:4;stroke-dasharray:none"
         d="m 235.78962,262.33886 c -1.43798,-0.46009 -2.51521,-1.96429 -2.50203,-3.49372 0.009,-1.07988 0.35476,-1.80188 1.22971,-2.5701 0.80937,-0.71064 1.31043,-0.90741 2.31071,-0.90741 1.02961,0 1.52951,0.20727 2.40281,0.99625 1.68766,1.5247 1.47478,4.12621 -0.44823,5.47776 -0.77763,0.54654 -2.13438,0.77193 -2.99297,0.49722 z"
         id="path970"
         transform="scale(0.26458333)" />
      <path
         style="fill:#155724;fill-opacity:1;stroke-width:1.51181104;stroke:#155724;stroke-opacity:1;stroke-miterlimit:4;stroke-dasharray:none"
         d="m 249.97608,262.04211 c -3.34692,-1.66784 -2.17209,-6.65201 1.57234,-6.67055 2.30027,-0.0114 4.07045,2.30835 3.41948,4.48109 -0.42446,1.41671 -2.00633,2.6452 -3.41733,2.65392 -0.34902,0.002 -1.05754,-0.20685 -1.57449,-0.46446 z"
         id="path972"
         transform="scale(0.26458333)" />
      <path
         style="fill:#155724;fill-opacity:1;stroke-width:1.51181104;stroke:#155724;stroke-opacity:1;stroke-miterlimit:4;stroke-dasharray:none"
         d="m 264.86219,262.18745 c -1.29772,-0.60766 -2.22656,-2.03929 -2.22961,-3.43654 -0.002,-0.79753 0.87747,-2.29726 1.64424,-2.80468 1.34858,-0.89245 3.17214,-0.735 4.39893,0.37979 1.24715,1.1333 1.45472,3.20208 0.46223,4.60699 -0.9648,1.36571 -2.85429,1.92005 -4.27579,1.25444 z"
         id="path974"
         transform="scale(0.26458333)" />
      <path
         style="fill:#155724;fill-opacity:1;stroke-width:1.51181104;stroke:#155724;stroke-opacity:1;stroke-miterlimit:4;stroke-dasharray:none"
         d="m 279.86373,262.29504 c -0.86116,-0.30102 -1.6716,-1.0001 -2.07412,-1.78911 -0.56403,-1.1056 -0.42375,-2.74311 0.31342,-3.65844 1.17149,-1.45462 2.88787,-1.87373 4.49243,-1.09698 0.90663,0.43889 1.72978,1.57947 1.91008,2.64665 0.42054,2.48917 -2.25187,4.73328 -4.64181,3.89788 z"
         id="path976"
         transform="scale(0.26458333)" />
      <path
         style="fill:#155724;fill-opacity:1;stroke-width:1.51181104;stroke:#155724;stroke-opacity:1;stroke-miterlimit:4;stroke-dasharray:none"
         d="m 228.45041,273.36792 c -1.33408,-0.36742 -2.61388,-2.11773 -2.60062,-3.55672 0.005,-0.50996 0.60982,-1.89353 1.03268,-2.36114 0.8422,-0.93133 2.76943,-1.29837 4.01378,-0.76443 0.70028,0.30048 1.6459,1.27075 1.90295,1.95256 0.10424,0.27648 0.18953,0.88661 0.18953,1.35584 0,2.29099 -2.28968,3.99319 -4.53832,3.37389 z"
         id="path978"
         transform="scale(0.26458333)" />
      <path
         style="fill:#155724;fill-opacity:1;stroke-width:1.51181104;stroke:#155724;stroke-opacity:1;stroke-miterlimit:4;stroke-dasharray:none"
         d="m 243.14677,273.33556 c -1.5662,-0.5597 -2.47947,-1.80732 -2.47947,-3.38718 0,-1.06498 0.33012,-1.83719 1.09478,-2.56087 0.7634,-0.72248 1.36916,-0.94845 2.5426,-0.94845 1.66881,0 3.02001,1.19146 3.41255,3.00913 0.3312,1.53362 -0.99551,3.51365 -2.63011,3.92524 -1.01103,0.25458 -1.12838,0.25229 -1.94035,-0.0379 z"
         id="path980"
         transform="scale(0.26458333)" />
      <path
         style="fill:#155724;fill-opacity:1;stroke-width:1.51181104;stroke:#155724;stroke-opacity:1;stroke-miterlimit:4;stroke-dasharray:none"
         d="m 257.83282,273.31447 c -2.4521,-0.7648 -3.31195,-3.91393 -1.57664,-5.77428 1.18289,-1.26813 3.42486,-1.48569 4.71698,-0.45774 0.84852,0.67505 1.48106,1.88874 1.47593,2.83195 -0.008,1.49053 -1.21213,3.08582 -2.62513,3.47821 -0.83708,0.23246 -1.01806,0.22536 -1.99114,-0.0781 z"
         id="path982"
         transform="scale(0.26458333)" />
      <path
         style="fill:#155724;fill-opacity:1;stroke-width:1.51181104;stroke:#155724;stroke-opacity:1;stroke-miterlimit:4;stroke-dasharray:none"
         d="m 272.55262,273.32355 c -1.01543,-0.37339 -1.55793,-0.82738 -2.05739,-1.72174 -0.60562,-1.08443 -0.58269,-2.34689 0.0626,-3.44805 1.79923,-3.07016 6.58902,-1.78534 6.58902,1.76745 0,2.37448 -2.45175,4.19015 -4.59427,3.40234 z"
         id="path984"
         transform="scale(0.26458333)" />
      <path
         style="fill:#155724;fill-opacity:1;stroke-width:1.51181104;stroke:#155724;stroke-opacity:1;stroke-miterlimit:4;stroke-dasharray:none"
         d="m 287.20743,273.31958 c -2.0399,-0.72712 -2.99251,-3.03112 -2.0312,-4.91269 0.63709,-1.24698 1.53207,-1.84831 2.8785,-1.93404 1.39437,-0.0888 2.37179,0.35121 3.14194,1.41437 1.41855,1.95825 0.47968,4.73943 -1.83164,5.42582 -1.08884,0.32335 -1.26727,0.32389 -2.1576,0.007 z"
         id="path986"
         transform="scale(0.26458333)" />
    </g>
  </g>
  <g
     inkscape:groupmode="layer"
     id="layer8"
     inkscape:label="Pot"
     transform="translate(-32.124168,-64.719784)">
    <g
       id="g1273"
       transform="matrix(0.04363969,0,0,0.05713256,50.314435,78.999776)"
       style="fill:#ecd454;fill-opacity:1;stroke:#ac7000;stroke-width:0.99478;stroke-miterlimit:4;stroke-dasharray:none;stroke-opacity:1">
      <g
         id="g1207"
         style="fill:#ecd454;fill-opacity:1;stroke:#ac7000;stroke-width:0.99478;stroke-miterlimit:4;stroke-dasharray:none;stroke-opacity:1">
        <g
           id="g1205"
           style="fill:#ecd454;fill-opacity:1;stroke:#ac7000;stroke-width:0.99478;stroke-miterlimit:4;stroke-dasharray:none;stroke-opacity:1">
          <path
             d="M 398.096,112 H 268 v -12 h 10.2 c 6.616,0 12,-5.408 12,-12 0,-6.592 -5.384,-12 -12,-12 h -39.844 c -6.616,0 -12,5.408 -12,12 0,6.592 5.384,12 12,12 H 244 v 12 H 118.456 C 94.188,112 72,131.792 72,156.056 V 168 H 440 V 156.056 C 440,131.792 422.364,112 398.096,112 Z"
             id="path1203"
             style="fill:#ecd454;fill-opacity:1;stroke:#ac7000;stroke-width:0.99478;stroke-miterlimit:4;stroke-dasharray:none;stroke-opacity:1" />
        </g>
      </g>
      <g
         id="g1213"
         style="fill:#ecd454;fill-opacity:1;stroke:#ac7000;stroke-width:0.99478;stroke-miterlimit:4;stroke-dasharray:none;stroke-opacity:1">
        <g
           id="g1211"
           style="fill:#ecd454;fill-opacity:1;stroke:#ac7000;stroke-width:0.99478;stroke-miterlimit:4;stroke-dasharray:none;stroke-opacity:1">
          <path
             d="M 501.952,196 H 440 V 184 H 72 v 12 H 14.596 C 7.98,196 0,201.5 0,208.116 v 7.668 C 0,222.404 7.98,228 14.596,228 H 58.604 C 67.34,228 72,234.888 72,243.616 V 392.052 C 72,416.316 94.188,436 118.456,436 h 279.64 C 422.36,436 440,416.316 440,392.056 V 243.616 C 440,234.884 449.212,228 457.94,228 h 44.012 C 508.568,228 512,222.404 512,215.784 v -7.668 C 512,201.5 508.572,196 501.952,196 Z"
             id="path1209"
             style="fill:#ecd454;fill-opacity:1;stroke:#ac7000;stroke-width:0.99478;stroke-miterlimit:4;stroke-dasharray:none;stroke-opacity:1" />
        </g>
      </g>
      <g
         id="g1215"
         style="fill:#ecd454;fill-opacity:1;stroke:#ac7000;stroke-width:0.99478;stroke-miterlimit:4;stroke-dasharray:none;stroke-opacity:1" />
      <g
         id="g1217"
         style="fill:#ecd454;fill-opacity:1;stroke:#ac7000;stroke-width:0.99478;stroke-miterlimit:4;stroke-dasharray:none;stroke-opacity:1" />
      <g
         id="g1219"
         style="fill:#ecd454;fill-opacity:1;stroke:#ac7000;stroke-width:0.99478;stroke-miterlimit:4;stroke-dasharray:none;stroke-opacity:1" />
      <g
         id="g1221"
         style="fill:#ecd454;fill-opacity:1;stroke:#ac7000;stroke-width:0.99478;stroke-miterlimit:4;stroke-dasharray:none;stroke-opacity:1" />
      <g
         id="g1223"
         style="fill:#ecd454;fill-opacity:1;stroke:#ac7000;stroke-width:0.99478;stroke-miterlimit:4;stroke-dasharray:none;stroke-opacity:1" />
      <g
         id="g1225"
         style="fill:#ecd454;fill-opacity:1;stroke:#ac7000;stroke-width:0.99478;stroke-miterlimit:4;stroke-dasharray:none;stroke-opacity:1" />
      <g
         id="g1227"
         style="fill:#ecd454;fill-opacity:1;stroke:#ac7000;stroke-width:0.99478;stroke-miterlimit:4;stroke-dasharray:none;stroke-opacity:1" />
      <g
         id="g1229"
         style="fill:#ecd454;fill-opacity:1;stroke:#ac7000;stroke-width:0.99478;stroke-miterlimit:4;stroke-dasharray:none;stroke-opacity:1" />
      <g
         id="g1231"
         style="fill:#ecd454;fill-opacity:1;stroke:#ac7000;stroke-width:0.99478;stroke-miterlimit:4;stroke-dasharray:none;stroke-opacity:1" />
      <g
         id="g1233"
         style="fill:#ecd454;fill-opacity:1;stroke:#ac7000;stroke-width:0.99478;stroke-miterlimit:4;stroke-dasharray:none;stroke-opacity:1" />
      <g
         id="g1235"
         style="fill:#ecd454;fill-opacity:1;stroke:#ac7000;stroke-width:0.99478;stroke-miterlimit:4;stroke-dasharray:none;stroke-opacity:1" />
      <g
         id="g1237"
         style="fill:#ecd454;fill-opacity:1;stroke:#ac7000;stroke-width:0.99478;stroke-miterlimit:4;stroke-dasharray:none;stroke-opacity:1" />
      <g
         id="g1239"
         style="fill:#ecd454;fill-opacity:1;stroke:#ac7000;stroke-width:0.99478;stroke-miterlimit:4;stroke-dasharray:none;stroke-opacity:1" />
      <g
         id="g1241"
         style="fill:#ecd454;fill-opacity:1;stroke:#ac7000;stroke-width:0.99478;stroke-miterlimit:4;stroke-dasharray:none;stroke-opacity:1" />
      <g
         id="g1243"
         style="fill:#ecd454;fill-opacity:1;stroke:#ac7000;stroke-width:0.99478;stroke-miterlimit:4;stroke-dasharray:none;stroke-opacity:1" />
    </g>
  </g>
</svg>
